<svg xmlns="http://www.w3.org/2000/svg" xmlns:xlink="http://www.w3.org/1999/xlink" preserveAspectRatio="xMidYMid" width="1920" height="984" viewBox="0 0 1920 984">
  <defs>
    <style>
      .cls-1 {
        fill: #efefef;
        fill-rule: evenodd;
      }
    </style>
  </defs>
  <path d="M1919.000,1857.000 L1919.000,-2587.000 L1920.000,-2587.000 L1920.000,1857.000 L1919.000,1857.000 ZM1599.000,-2587.000 L1600.000,-2587.000 L1600.000,1857.000 L1599.000,1857.000 L1599.000,-2587.000 ZM1279.000,-2587.000 L1280.000,-2587.000 L1280.000,1857.000 L1279.000,1857.000 L1279.000,-2587.000 ZM959.000,-2587.000 L960.000,-2587.000 L960.000,1857.000 L959.000,1857.000 L959.000,-2587.000 ZM639.000,-2587.000 L640.000,-2587.000 L640.000,1857.000 L639.000,1857.000 L639.000,-2587.000 ZM319.000,-2587.000 L320.000,-2587.000 L320.000,1857.000 L319.000,1857.000 L319.000,-2587.000 ZM-1.000,-2587.000 L-0.000,-2587.000 L-0.000,1857.000 L-1.000,1857.000 L-1.000,-2587.000 Z" class="cls-1"/>
</svg>
